<svg width="529" height="414" viewBox="0 0 529 414" fill="none" xmlns="http://www.w3.org/2000/svg">
<g clip-path="url(#clip0_100_1785)">
<path d="M264.487 276.143L176.417 414H352.583L264.487 276.143Z" fill="#E5CDFF"/>
<path d="M88.1709 138.084H264.487L176.342 0.126221L88.1709 138.084Z" fill="#AE26FF"/>
<path d="M176.266 275.941L176.342 276.042L264.487 138.084H88.1709L176.266 275.941Z" fill="#BC53FD"/>
<path d="M352.658 0.126221L264.487 138.084H440.829L352.658 0.126221Z" fill="#AE26FF"/>
<path d="M264.487 138.084L352.658 276.042L440.829 138.084H264.487Z" fill="#BC53FD"/>
<path d="M88.1709 138.084L0.0756836 275.941H176.266L88.1709 138.084Z" fill="#CB98FF"/>
<path d="M0.0756615 275.941L0 276.042L88.1709 414L176.342 276.042L176.266 275.941H0.0756615Z" fill="#D5BAFE"/>
<path d="M176.266 275.941L176.341 276.041L176.266 275.941Z" fill="#7263FA"/>
<path d="M176.266 275.941L176.341 276.041L176.266 275.941Z" fill="#A79DFF"/>
<path d="M352.583 0H176.417L176.342 0.126289L264.487 138.084L352.658 0.126289L352.583 0Z" fill="#6B00B1"/>
<path d="M528.924 275.941H352.734L352.658 276.042L440.829 414L529 276.042L528.924 275.941Z" fill="#D5BAFE"/>
<path d="M528.924 275.941L440.829 138.084L352.734 275.941H528.924Z" fill="#CB98FF"/>
</g>
<defs>
<clipPath id="clip0_100_1785">
<rect width="529" height="414" fill="white"/>
</clipPath>
</defs>
</svg>
