<svg width="477" height="414" viewBox="0 0 477 414" fill="none" xmlns="http://www.w3.org/2000/svg">
<g clip-path="url(#clip0_18_420)">
<path d="M290.728 0H186.255L0 323.349L52.2365 414H156.71L193.836 349.576L230.945 414H424.764L477 323.349L290.728 0ZM290.624 310.409L171.508 103.608H231.049L350.165 310.409H290.624ZM231.049 103.608L350.165 310.409H290.624L171.508 103.608H231.049ZM141.686 387.929H82.1453L149.146 271.658L178.916 323.332L141.686 387.929ZM409.757 387.929H245.951L149.146 219.914L59.8002 375.006L30.0299 323.349L149.146 116.566L275.722 336.289H394.872L245.951 77.7453H171.508L201.278 26.0539H275.722L446.97 323.332L409.74 387.929H409.757Z" fill="#6A5DE0"/>
</g>
<defs>
<clipPath id="clip0_18_420">
<rect width="477" height="414" fill="white"/>
</clipPath>
</defs>
</svg>
