<svg width="857" height="1080" viewBox="0 0 857 1080" fill="none" xmlns="http://www.w3.org/2000/svg">
<g opacity="0.7">
<path d="M666.042 536.197L380.831 371.53L380.831 700.864L666.042 536.197Z" fill="#7263FA" fill-opacity="0.3"/>
<path d="M381.332 372.396L381.332 699.998L665.042 536.197L381.332 372.396Z" stroke="#7263FA" stroke-opacity="0.3"/>
<path d="M856.184 536.197L570.972 371.53L570.972 700.864L856.184 536.197Z" fill="#7263FA" fill-opacity="0.1"/>
<path d="M571.473 372.396L571.473 699.998L855.184 536.197L571.473 372.396Z" stroke="#7263FA" stroke-opacity="0.1"/>
<path d="M190.69 699.718L26.0234 984.93H355.357L190.69 699.718Z" fill="#7263FA" fill-opacity="0.1"/>
<path d="M26.8887 984.429H354.491L190.69 700.718L26.8887 984.429Z" stroke="#7263FA" stroke-opacity="0.1"/>
<path d="M475.901 536.197L190.69 371.53L190.69 700.864L475.901 536.197Z" fill="#7263FA" fill-opacity="0.5"/>
<path d="M191.19 372.396L191.19 699.998L474.901 536.197L191.19 372.396Z" stroke="#7263FA" stroke-opacity="0.5"/>
<circle cx="190.141" cy="190.141" r="190.141" transform="matrix(1 0 0 -1 190.69 380.282)" fill="#7263FA" fill-opacity="0.2"/>
<circle cx="190.141" cy="190.141" r="189.641" transform="matrix(1 0 0 -1 190.69 380.282)" stroke="#7263FA" stroke-opacity="0.3"/>
</g>
</svg>
