<svg width="85" height="26" viewBox="0 0 85 26" fill="none" xmlns="http://www.w3.org/2000/svg">
<path d="M56.0688 18.4215C55.9761 17.9115 55.8834 17.4015 55.8356 15.7247C55.7878 14.0478 55.7878 11.2196 55.811 9.64678C55.9283 6.72234 55.9747 4.74836 56.045 3.93419C56.0688 3.30546 56.0688 2.23909 56.0688 1.14041" stroke="white" stroke-width="2" stroke-linecap="round"/>
<path d="M45.8121 1C45.8121 1.92728 45.8121 2.85455 45.8121 5.25634C45.8121 7.65813 45.8121 11.5063 45.7658 13.7437C45.5311 17.3412 45.4848 18.2319 45.4145 18.7222C45.3906 18.9808 45.3906 19.2589 45.3906 19.405" stroke="white" stroke-width="2" stroke-linecap="round"/>
<path d="M46.2334 1C49.8498 6.93457 51.8519 10.27 52.109 10.8305C52.88 12.5118 53.9129 14.4849 54.3337 15.0707C54.7987 15.7181 55.0369 16.5445 55.2477 17.155C55.3179 17.2962 55.4106 17.4353 55.4816 17.5765C55.5525 17.7177 55.5989 17.8568 55.6467 18.1406" stroke="white" stroke-width="2" stroke-linecap="round"/>
<path d="M63.6559 8.30576C62.1723 8.49121 61.2689 8.67948 60.78 9.23725C59.7356 10.4287 59.2078 11.7212 59.0673 12.7925C58.6461 16.0042 59.531 17.0559 60.048 17.9038C60.5856 18.7854 61.3574 19.1689 62.5502 19.4977C63.2493 19.6904 63.795 19.4991 64.1217 19.3361C65.0585 18.8687 66.0359 16.5192 66.5825 14.4497C67.541 10.82 66.2804 10.135 65.9987 9.4789C65.4838 8.96328 65.0623 8.49402 64.6893 8.35352C64.4554 8.30576 64.1308 8.30576 63.7964 8.30576" stroke="white" stroke-width="2" stroke-linecap="round"/>
<path d="M69.9785 9.14874C70.0712 9.7051 70.7217 12.1708 71.6813 15.6116C72.2566 17.6744 72.367 18.6969 72.6234 19.6361C72.6765 19.8308 72.7407 19.9642 72.8341 20.0822C72.9275 20.2002 73.0666 20.2929 73.2078 20.3175C73.7848 20.418 74.1456 19.6888 74.5664 19.1029C74.7865 18.7965 74.8481 18.3765 75.2204 17.1219C76.1043 14.1436 76.4877 11.7746 76.6043 11.167C76.7061 10.6366 76.8628 10.0887 76.9324 9.66646C76.9519 9.54818 77.141 9.70791 77.2359 9.87229C77.4244 10.1991 77.6103 10.9232 77.9145 11.8582C78.1519 12.5881 78.5446 14.7967 79.2 17.6762C79.5346 19.1461 79.906 19.6832 80.1167 20.3625C80.1699 20.5338 80.2797 20.6666 80.4202 20.7615C80.5607 20.8563 80.7462 20.9027 81.0272 20.6484C82.4683 19.3442 82.4799 18.0056 82.7862 17.0201C83.0788 16.0784 83.1852 15.0552 83.3018 13.9298C83.4228 12.7622 83.4662 11.4501 83.5828 10.3001C83.6067 9.80907 83.653 9.38477 83.7233 8.98787C83.7472 8.77642 83.7472 8.5446 83.7472 8.30576" stroke="white" stroke-width="2" stroke-linecap="round"/>
<path d="M2.47538 2.22946C2.47538 2.50777 2.40581 5.99078 2.2656 11.2944C2.19497 13.2583 2.1254 13.7453 2.08955 14.9355C2.05371 16.1257 2.05371 18.0042 2.05371 19.9397" stroke="white" stroke-width="2" stroke-linecap="round"/>
<path d="M3.10836 2.22955C4.91734 1.95125 6.89287 1.87745 8.57851 2.1916C9.63823 2.3891 9.78344 3.49246 9.99427 4.26096C10.3821 5.67473 9.99638 6.86584 9.75181 7.39082C9.07117 8.85185 7.82266 9.39377 6.45222 9.8186C5.04681 10.2543 3.81888 10.2413 3.1811 10.2413C0.516277 10.2413 7.52749 10.5913 8.76194 11.0826C9.76904 11.4833 10.4834 12.4172 10.943 13.3649C11.169 13.8308 11.331 15.08 11.2614 16.87C11.2155 18.0515 10.4918 18.8814 9.72019 19.5835C8.76211 20.4552 5.38539 20.3615 3.25279 20.1865C2.62344 20.1506 2.05629 20.2202 1.63567 20.3952C1.42378 20.5006 1.21505 20.6398 1 20.7831" stroke="white" stroke-width="2" stroke-linecap="round"/>
<path d="M15.3751 10.652C15.2736 11.2868 15.172 11.9216 15.0816 13.0103C14.9912 14.0991 14.915 15.6226 14.8885 16.4963C14.8455 17.9099 15.3213 18.8788 15.6944 19.282C15.838 19.4371 16.4477 19.5252 17.3307 19.679C18.1271 19.8179 19.1392 19.6044 20.1514 19.374C20.744 19.2391 21.0928 18.9889 21.3875 18.7076C21.6566 18.4508 21.8107 17.7354 22.1693 16.9541C22.4045 16.4415 22.6833 15.8118 22.9395 15.0051C23.3392 13.7465 23.6589 12.4001 23.6978 11.693C23.7113 11.4465 23.762 11.0652 23.762 11.0102C23.762 10.0495 23.8128 13.2119 23.9278 14.5015C24.0993 16.4233 24.1721 17.7039 24.2233 17.9343C24.3006 18.2687 24.326 18.5249 24.3772 18.7296C24.403 18.8327 24.4284 18.9342 24.5315 19.1158" stroke="white" stroke-width="2" stroke-linecap="round"/>
<path d="M28.5313 10.4981C28.4805 11.2598 28.4297 12.0216 28.4036 13.2265C28.3774 14.4315 28.3774 16.0565 28.3901 16.9698C28.4089 18.3242 28.7098 18.7295 28.8768 19.025C28.976 19.2006 29.5023 19.1927 30.1806 19.1166C31.2446 18.9971 31.7075 18.2971 32.6189 17.6693C32.9924 17.412 33.4773 16.4812 34.1436 15.1755C34.6492 14.1848 34.6607 13.2211 34.7376 12.4274C34.7995 11.7886 34.7891 11.3714 34.8276 11.1409C34.8573 10.9633 34.8407 11.9492 34.9296 14.3141C34.9784 15.6147 35.1962 17.1106 35.2877 18.1998C35.3793 19.2889 35.3793 19.9237 35.2904 20.5935C35.1088 21.9629 34.7391 22.8076 34.4202 23.1908C33.4957 24.3014 32.5878 24.6281 31.207 24.9243C30.5074 25.0744 29.2992 24.9635 28.3797 24.9128C27.4602 24.862 26.8508 24.7604 26.448 24.67C26.0452 24.5796 25.8675 24.5034 25.6074 24.2711" stroke="white" stroke-width="2" stroke-linecap="round"/>
</svg>
