<svg width="209" height="26" viewBox="0 0 209 26" fill="none" xmlns="http://www.w3.org/2000/svg">
<path d="M15 5.04925C14.8657 4.57293 14.0556 3.48067 13.0368 2.72512C12.2821 2.16536 11.4074 1.96957 10.7642 2.00345C9.18 2.08689 7.33858 3.40265 4.93371 5.82636C3.64148 7.1287 3.53637 8.46564 2.38431 11.8112C1.77354 13.5849 1.97315 16.7972 2.41179 19.0053C2.70827 20.4978 4.2732 21.5358 5.4619 22.2934C7.91948 23.8597 11.4624 22.4351 12.3855 21.7165C13.1872 21.0923 14.1125 20.1109 14.7273 18.5033C15.1585 17.3754 15 15.5325 14.3955 13.6847C10.7317 12.9209 9.16845 12.578 8.35732 12.4754C7.88205 12.4405 7.27752 12.4405 6.65467 12.4405" stroke="white" stroke-width="2.5" stroke-linecap="round"/>
<path d="M19.6473 16.7669C20.2249 16.7669 20.6509 16.7669 20.9577 16.7508C21.3631 16.7296 23.1969 16.6696 25.6923 16.6536C26.5832 16.6478 26.7114 16.6054 26.8257 16.5247C27.4161 16.1077 27.4914 15.1486 27.5084 13.9997C27.5135 13.6535 27.3309 13.4293 27.1048 13.1867C26.6622 12.7117 26.1007 12.6513 25.6621 12.5044C25.2134 12.3542 24.7392 12.3907 23.8825 12.31C22.8415 12.2119 21.9832 12.3576 21.6433 12.503C21.1323 12.7216 20.6237 13.3593 19.9254 14.5248C19.4388 15.337 19.2593 16.4372 19.1134 17.4885C18.892 19.0837 19.2894 19.8108 19.7426 20.4438C19.9624 20.751 20.4544 21.1081 21.4381 21.6254C22.975 22.4337 24.3775 22.4394 25.0232 22.488C25.9233 22.5558 26.6152 22.4725 26.9385 22.3597C27.2619 22.1506 27.8444 21.6011 28.4926 20.9209C28.7235 20.6578 28.7556 20.5615 28.7887 20.4623" stroke="white" stroke-width="2.5" stroke-linecap="round"/>
<path d="M32.9704 4.99976C32.9704 5.19231 32.9384 5.45196 32.8255 6.99482C32.7246 8.37588 32.6165 10.9767 32.5824 12.5244C32.5484 14.0721 32.6126 14.4893 32.6456 15.4905C32.7306 18.063 32.7108 19.8448 32.8557 20.2805C33.0853 20.9708 33.4557 21.4018 33.6658 21.5311C34.3332 21.942 35.6876 22.0183 36.6781 21.8413C37.9934 21.1771 38.5759 20.5304 38.9503 19.6391C38.9999 19.4266 38.9999 19.2662 38.9999 19.1008" stroke="white" stroke-width="2.5" stroke-linecap="round"/>
<path d="M30.5396 11.7101C32.433 11.7101 34.3264 11.7101 35.4462 11.7101C36.5661 11.7101 36.8549 11.7101 37.1 11.7261C37.345 11.7422 37.5376 11.7743 37.9305 11.8073" stroke="white" stroke-width="2.5" stroke-linecap="round"/>
<path d="M178.824 21.6603C178.73 21.1433 178.636 20.6263 178.588 18.9265C178.539 17.2266 178.539 14.3596 178.563 12.7652C178.682 9.80062 178.729 7.79955 178.8 6.9742C178.824 6.33685 178.824 5.25585 178.824 4.14209" stroke="white" stroke-width="2.5" stroke-linecap="round"/>
<path d="M168.427 3.99976C168.427 4.93976 168.427 5.87976 168.427 8.31451C168.427 10.7493 168.427 14.6503 168.38 16.9184C168.142 20.5652 168.095 21.4681 168.024 21.9652C168 22.2273 168 22.5093 168 22.6574" stroke="white" stroke-width="2.5" stroke-linecap="round"/>
<path d="M168.854 3.99976C172.521 10.0158 174.55 13.3969 174.811 13.9652C175.592 15.6695 176.639 17.6697 177.066 18.2636C177.537 18.9198 177.779 19.7576 177.992 20.3765C178.064 20.5196 178.158 20.6606 178.23 20.8037C178.302 20.9469 178.349 21.0879 178.397 21.3756" stroke="white" stroke-width="2.5" stroke-linecap="round"/>
<path d="M186.515 11.4058C185.011 11.5938 184.096 11.7846 183.6 12.35C182.541 13.5578 182.006 14.8681 181.864 15.9541C181.437 19.2098 182.334 20.276 182.858 21.1355C183.403 22.0292 184.185 22.418 185.394 22.7513C186.103 22.9466 186.656 22.7527 186.987 22.5875C187.937 22.1137 188.928 19.7319 189.482 17.634C190.454 13.9545 189.176 13.2601 188.89 12.595C188.368 12.0723 187.941 11.5966 187.563 11.4542C187.326 11.4058 186.997 11.4058 186.658 11.4058" stroke="white" stroke-width="2.5" stroke-linecap="round"/>
<path d="M192.925 12.2603C193.019 12.8243 193.678 15.3239 194.651 18.8118C195.234 20.903 195.346 21.9395 195.606 22.8916C195.66 23.089 195.725 23.2242 195.82 23.3438C195.914 23.4634 196.055 23.5574 196.198 23.5824C196.783 23.6842 197.149 22.945 197.576 22.3511C197.799 22.0405 197.861 21.6148 198.239 20.3429C199.135 17.3237 199.523 14.9222 199.642 14.3062C199.745 13.7685 199.904 13.2131 199.974 12.7851C199.994 12.6652 200.186 12.8272 200.282 12.9938C200.473 13.3251 200.661 14.0591 200.97 15.007C201.21 15.7469 201.608 17.9858 202.273 20.9048C202.612 22.3949 202.989 22.9393 203.202 23.6279C203.256 23.8016 203.367 23.9363 203.51 24.0324C203.652 24.1286 203.84 24.1756 204.125 23.9178C205.586 22.5957 205.598 21.2388 205.908 20.2397C206.205 19.285 206.313 18.2478 206.431 17.107C206.554 15.9234 206.598 14.5932 206.716 13.4275C206.74 12.9297 206.787 12.4996 206.858 12.0972C206.882 11.8829 206.882 11.6479 206.882 11.4058" stroke="white" stroke-width="2.5" stroke-linecap="round"/>
<path d="M95 2.99976C95.2918 9.60531 95.4843 11.7469 95.8738 19.2598C95.9716 20.8908 96.0679 21.2759 96.1656 21.6669C96.2633 22.0578 96.3596 22.443 96.4588 23.4233" stroke="white" stroke-width="2.5" stroke-linecap="round"/>
<path d="M95.5835 3.58327C96.453 3.48699 98.5887 3.2915 101.893 3.82397C102.59 3.93623 102.872 4.0676 103.117 4.30976C104.247 5.42601 104.045 8.234 103.416 9.99771C102.873 11.5216 101.133 11.9452 99.6259 12.2866C98.7054 12.3362 97.8243 12.4325 96.9519 12.5784C96.4647 12.628 95.887 12.628 95 12.9197" stroke="white" stroke-width="2.5" stroke-linecap="round"/>
<path d="M106.378 21.6727C106.378 18.6821 106.571 12.8322 106.718 10.4485C106.819 8.82273 107.155 7.67381 107.496 6.26312C107.645 5.64728 107.738 4.94872 108.174 4.31705C108.534 3.79594 109.582 3.87503 110.602 4.01945C112.44 4.27983 112.891 7.6563 113.67 9.60529C114.619 11.9803 115.61 15.1313 116.297 17.8243C116.59 19.4319 116.686 20.599 116.88 21.3269C116.978 21.6698 117.075 21.9586 117.174 22.548" stroke="white" stroke-width="2.5" stroke-linecap="round"/>
<path d="M105.795 17.2962C107.817 17.1999 109.839 17.1036 111.795 17.054C113.751 17.0044 115.581 17.0044 117.466 17.0044" stroke="white" stroke-width="2.5" stroke-linecap="round"/>
<path d="M118.049 5.91735C119.992 8.6366 122.694 12.6921 124.513 14.9606C125.351 16.0054 125.635 12.6338 126.458 9.57754C127.19 6.99105 127.386 5.92027 127.434 5.3382C127.482 5.04498 127.578 4.75613 127.969 3.875" stroke="white" stroke-width="2.5" stroke-linecap="round"/>
<path d="M125.343 15.5454C125.44 15.9305 125.536 16.3157 125.585 17.2362C125.635 18.1567 125.635 19.6009 125.683 20.4894C125.731 21.3778 125.828 21.6666 125.927 22.5478" stroke="white" stroke-width="2.5" stroke-linecap="round"/>
<path d="M132.346 5.04199C132.83 6.77507 133.414 11.064 133.561 14.075C133.653 15.9593 134.096 18.4457 134.387 20.2094C134.486 20.8148 134.68 21.3779 134.872 21.8637C135.065 22.0606 135.45 22.1569 136.996 22.2065C138.543 22.2561 141.239 22.2561 144.016 22.2561" stroke="white" stroke-width="2.5" stroke-linecap="round"/>
<path d="M155.381 7.39571C154.709 6.4647 152.244 5.44186 150.879 5.39723C150.111 5.37208 149.729 5.99027 149.071 6.71275C148.585 7.24585 148.41 7.9033 148.409 9.00648C148.408 10.1376 149.553 11.005 150.34 11.5808C151.935 12.7478 152.872 13.3873 153.424 14.004C153.885 14.5187 154.147 15.1728 154.487 16.0222C154.843 16.9091 154.999 17.9352 155.105 18.8478C155.224 19.8748 155.042 20.7844 154.873 21.2301C154.744 21.5682 154.49 21.7639 154.172 21.9545C153.125 22.5836 151.476 22.4015 149.818 22.3818C148.928 22.3712 147.951 20.5013 147.094 18.9434C146.883 18.4977 146.546 17.8664 146.351 17.478C146.157 17.0897 146.115 16.9634 145.944 16.7058" stroke="white" stroke-width="2.5" stroke-linecap="round"/>
<path d="M47 2.56152C47.2506 3.027 47.5013 3.49247 48.7225 4.93176C49.9437 6.37104 52.1278 8.77003 53.3425 10.0775C54.5572 11.3849 54.7362 11.5282 55.0292 11.5672" stroke="white" stroke-width="2.5" stroke-linecap="round"/>
<path d="M58.5014 1.99976C58.0717 3.68263 57.7929 4.4282 56.5869 8.49976C55.3809 12.5713 53.8317 16.2878 51.8027 22.9998" stroke="white" stroke-width="2.5" stroke-linecap="round"/>
<path d="M61.5394 10.916C61.3246 10.916 60.1397 12.026 58.4585 13.8689C57.5996 14.8103 57.5617 15.9006 57.4711 17.3068C57.3669 18.9246 57.668 20.0997 58.0283 20.7127C58.8483 22.1083 60.5173 22.5952 61.6267 22.7249C62.7886 22.8607 63.959 20.7225 64.4315 19.6005C64.6595 19.0592 64.6491 18.4775 64.7576 17.7218C65.1283 15.1398 63.9655 13.5244 63.5841 12.7633C63.2238 12.0441 62.8783 11.5692 62.4817 11.2784C62.1579 11.2415 61.7586 11.2773 61.3256 11.3316C61.1076 11.35 60.8927 11.35 60.6714 11.35" stroke="white" stroke-width="2.5" stroke-linecap="round"/>
<path d="M68.3751 11.8926C68.3751 12.0358 68.3751 12.179 68.3035 13.3986C68.2319 14.6182 68.0886 16.9097 68.0507 18.2335C68.0045 19.8433 68.3013 20.3536 68.6078 20.7865C68.9268 21.237 69.2778 21.5482 69.5844 21.7468C69.9025 21.9528 70.505 21.9833 71.1913 21.9117C71.7066 21.8579 72.241 21.048 73.0705 19.8409C74.111 18.3268 74.5228 17.0313 74.6671 16.096C75.1169 13.1812 75.1022 12.3298 75.1022 12.1817C75.1022 12.0076 75.1022 13.0362 75.2097 14.6041C75.3171 16.1719 75.5319 18.6067 75.6963 20.0579C75.8607 21.5091 75.9681 21.903 76.0788 22.2003" stroke="white" stroke-width="2.5" stroke-linecap="round"/>
<path d="M79.187 12.0243C79.187 12.5578 79.3867 15.1667 79.5062 16.8609C79.5441 17.3984 79.5904 18.7366 79.607 20.45C79.6153 21.2996 79.6912 21.8034 79.6912 21.9078C79.6912 22.8018 79.7245 20.0608 79.8082 19.2585C79.961 17.794 80.1269 16.1994 80.3619 15.0911C80.5863 14.0325 80.8994 13.3716 81.2695 12.7998C81.8684 11.8746 83.0837 11.7904 83.5552 11.6214C83.8455 11.5174 84.1275 11.5534 84.3453 11.6537C84.8001 12.0233 84.9685 12.3258 85.0522 12.527C85.1027 12.6284 85.1692 12.7282 85.2378 13.0328" stroke="white" stroke-width="2.5" stroke-linecap="round"/>
</svg>
