<svg width="209" height="26" viewBox="0 0 209 26" fill="none" xmlns="http://www.w3.org/2000/svg">
<path d="M15 5.0495C14.8657 4.57317 14.0556 3.48091 13.0368 2.72537C12.2821 2.1656 11.4074 1.96982 10.7642 2.0037C9.18 2.08714 7.33858 3.4029 4.93371 5.8266C3.64148 7.12894 3.53637 8.46588 2.38431 11.8114C1.77354 13.5851 1.97315 16.7974 2.41179 19.0056C2.70827 20.4981 4.2732 21.536 5.4619 22.2936C7.91948 23.8599 11.4624 22.4353 12.3855 21.7167C13.1872 21.0926 14.1125 20.1112 14.7273 18.5036C15.1585 17.3756 15 15.5327 14.3955 13.6849C10.7317 12.9211 9.16845 12.5783 8.35732 12.4756C7.88205 12.4407 7.27752 12.4407 6.65467 12.4407" stroke="#FFAF4C" stroke-width="2.5" stroke-linecap="round"/>
<path d="M19.6473 16.7671C20.2249 16.7671 20.6509 16.7671 20.9577 16.7511C21.3631 16.7299 23.1969 16.6699 25.6923 16.6538C26.5832 16.6481 26.7114 16.6057 26.8257 16.525C27.4161 16.1079 27.4914 15.1489 27.5084 13.9999C27.5135 13.6538 27.3309 13.4295 27.1048 13.1869C26.6622 12.712 26.1007 12.6515 25.6621 12.5047C25.2134 12.3545 24.7392 12.3909 23.8825 12.3102C22.8415 12.2121 21.9832 12.3578 21.6433 12.5032C21.1323 12.7218 20.6237 13.3595 19.9254 14.525C19.4388 15.3372 19.2593 16.4374 19.1134 17.4887C18.892 19.084 19.2894 19.811 19.7426 20.4441C19.9624 20.7512 20.4544 21.1083 21.4381 21.6257C22.975 22.434 24.3775 22.4396 25.0232 22.4883C25.9233 22.556 26.6152 22.4727 26.9385 22.3599C27.2619 22.1508 27.8444 21.6014 28.4926 20.9211C28.7235 20.658 28.7556 20.5618 28.7887 20.4626" stroke="#FFAF4C" stroke-width="2.5" stroke-linecap="round"/>
<path d="M32.9704 5C32.9704 5.19255 32.9384 5.45221 32.8255 6.99506C32.7246 8.37612 32.6165 10.9769 32.5824 12.5246C32.5484 14.0723 32.6126 14.4895 32.6456 15.4907C32.7306 18.0632 32.7108 19.845 32.8557 20.2807C33.0853 20.971 33.4557 21.402 33.6658 21.5313C34.3332 21.9423 35.6876 22.0186 36.6781 21.8416C37.9934 21.1774 38.5759 20.5306 38.9503 19.6394C38.9999 19.4269 38.9999 19.2664 38.9999 19.1011" stroke="#FFAF4C" stroke-width="2.5" stroke-linecap="round"/>
<path d="M30.5396 11.7103C32.433 11.7103 34.3264 11.7103 35.4462 11.7103C36.5661 11.7103 36.8549 11.7103 37.1 11.7264C37.345 11.7424 37.5376 11.7745 37.9305 11.8076" stroke="#FFAF4C" stroke-width="2.5" stroke-linecap="round"/>
<path d="M178.825 21.6606C178.731 21.1436 178.637 20.6266 178.588 18.9267C178.54 17.2269 178.54 14.3599 178.563 12.7654C178.682 9.80086 178.729 7.79979 178.8 6.97444C178.825 6.33709 178.825 5.25609 178.825 4.14233" stroke="#FFAF4C" stroke-width="2.5" stroke-linecap="round"/>
<path d="M168.427 4C168.427 4.94 168.427 5.88 168.427 8.31475C168.427 10.7495 168.427 14.6505 168.38 16.9186C168.142 20.5654 168.095 21.4684 168.024 21.9654C168 22.2275 168 22.5095 168 22.6576" stroke="#FFAF4C" stroke-width="2.5" stroke-linecap="round"/>
<path d="M168.854 4C172.521 10.016 174.55 13.3972 174.811 13.9655C175.592 15.6697 176.639 17.6699 177.066 18.2638C177.537 18.9201 177.779 19.7579 177.992 20.3767C178.064 20.5198 178.158 20.6608 178.23 20.804C178.302 20.9471 178.349 21.0881 178.397 21.3758" stroke="#FFAF4C" stroke-width="2.5" stroke-linecap="round"/>
<path d="M186.515 11.406C185.011 11.594 184.096 11.7849 183.6 12.3503C182.541 13.558 182.006 14.8684 181.864 15.9543C181.437 19.2101 182.334 20.2762 182.858 21.1357C183.403 22.0294 184.185 22.4183 185.394 22.7516C186.103 22.9469 186.656 22.753 186.987 22.5878C187.937 22.1139 188.928 19.7322 189.482 17.6342C190.454 13.9547 189.176 13.2604 188.89 12.5953C188.368 12.0726 187.941 11.5969 187.563 11.4544C187.326 11.406 186.997 11.406 186.658 11.406" stroke="#FFAF4C" stroke-width="2.5" stroke-linecap="round"/>
<path d="M192.925 12.2606C193.019 12.8246 193.678 15.3241 194.651 18.8121C195.234 20.9033 195.346 21.9397 195.606 22.8918C195.66 23.0892 195.725 23.2244 195.82 23.344C195.914 23.4637 196.055 23.5577 196.198 23.5826C196.783 23.6844 197.149 22.9453 197.576 22.3513C197.799 22.0407 197.861 21.615 198.239 20.3432C199.135 17.324 199.523 14.9225 199.642 14.3065C199.745 13.7688 199.904 13.2134 199.974 12.7854C199.994 12.6655 200.186 12.8274 200.282 12.994C200.473 13.3253 200.661 14.0594 200.97 15.0072C201.21 15.7471 201.608 17.986 202.273 20.905C202.612 22.3952 202.989 22.9396 203.202 23.6282C203.256 23.8019 203.367 23.9365 203.51 24.0327C203.652 24.1288 203.84 24.1758 204.125 23.918C205.586 22.5959 205.598 21.239 205.908 20.2399C206.205 19.2853 206.313 18.2481 206.431 17.1073C206.554 15.9237 206.598 14.5935 206.716 13.4277C206.74 12.93 206.787 12.4998 206.858 12.0975C206.882 11.8831 206.882 11.6481 206.882 11.406" stroke="#FFAF4C" stroke-width="2.5" stroke-linecap="round"/>
<path d="M95 3C95.2918 9.60555 95.4843 11.7471 95.8738 19.26C95.9716 20.891 96.0679 21.2761 96.1656 21.6671C96.2633 22.0581 96.3596 22.4432 96.4588 23.4235" stroke="#FFAF4C" stroke-width="2.5" stroke-linecap="round"/>
<path d="M95.5835 3.58351C96.453 3.48723 98.5887 3.29175 101.893 3.82422C102.59 3.93647 102.872 4.06784 103.117 4.31001C104.247 5.42625 104.045 8.23424 103.416 9.99796C102.873 11.5219 101.133 11.9455 99.6259 12.2869C98.7054 12.3365 97.8243 12.4327 96.9519 12.5786C96.4647 12.6282 95.887 12.6282 95 12.92" stroke="#FFAF4C" stroke-width="2.5" stroke-linecap="round"/>
<path d="M106.378 21.6729C106.378 18.6823 106.571 12.8324 106.718 10.4487C106.819 8.82297 107.155 7.67405 107.496 6.26337C107.645 5.64753 107.738 4.94897 108.174 4.3173C108.534 3.79618 109.582 3.87527 110.602 4.0197C112.44 4.28008 112.891 7.65654 113.67 9.60553C114.619 11.9806 115.61 15.1316 116.297 17.8245C116.59 19.4322 116.686 20.5992 116.88 21.3272C116.978 21.67 117.075 21.9588 117.174 22.5482" stroke="#FFAF4C" stroke-width="2.5" stroke-linecap="round"/>
<path d="M105.795 17.2964C107.817 17.2001 109.839 17.1038 111.795 17.0542C113.751 17.0046 115.581 17.0046 117.466 17.0046" stroke="#FFAF4C" stroke-width="2.5" stroke-linecap="round"/>
<path d="M118.049 5.9176C119.992 8.63684 122.694 12.6924 124.513 14.9608C125.351 16.0056 125.635 12.634 126.457 9.57778C127.19 6.99129 127.385 5.92051 127.433 5.33844C127.482 5.04522 127.578 4.75637 127.969 3.87524" stroke="#FFAF4C" stroke-width="2.5" stroke-linecap="round"/>
<path d="M125.344 15.5457C125.44 15.9308 125.536 16.3159 125.586 17.2364C125.636 18.1569 125.636 19.6012 125.684 20.4896C125.732 21.378 125.828 21.6669 125.927 22.548" stroke="#FFAF4C" stroke-width="2.5" stroke-linecap="round"/>
<path d="M132.346 5.04224C132.83 6.77532 133.414 11.0643 133.561 14.0753C133.653 15.9595 134.096 18.4459 134.387 20.2096C134.486 20.815 134.68 21.3781 134.872 21.8639C135.065 22.0609 135.45 22.1572 136.996 22.2068C138.543 22.2564 141.239 22.2564 144.016 22.2564" stroke="#FFAF4C" stroke-width="2.5" stroke-linecap="round"/>
<path d="M155.381 7.39595C154.709 6.46494 152.244 5.44211 150.879 5.39747C150.11 5.37232 149.729 5.99051 149.071 6.713C148.585 7.24609 148.41 7.90354 148.409 9.00673C148.407 10.1379 149.553 11.0052 150.34 11.581C151.934 12.7481 152.871 13.3876 153.423 14.0042C153.884 14.519 154.146 15.1731 154.487 16.0225C154.843 16.9093 154.998 17.9355 155.104 18.848C155.223 19.875 155.042 20.7846 154.872 21.2304C154.743 21.5684 154.49 21.7641 154.172 21.9548C153.124 22.5838 151.476 22.4018 149.818 22.382C148.928 22.3714 147.951 20.5015 147.094 18.9437C146.882 18.4979 146.545 17.8666 146.351 17.4783C146.156 17.0899 146.114 16.9637 145.943 16.706" stroke="#FFAF4C" stroke-width="2.5" stroke-linecap="round"/>
<path d="M47 2.56177C47.2506 3.02724 47.5013 3.49272 48.7225 4.932C49.9437 6.37129 52.1278 8.77027 53.3425 10.0777C54.5572 11.3852 54.7362 11.5284 55.0292 11.5675" stroke="#FFAF4C" stroke-width="2.5" stroke-linecap="round"/>
<path d="M58.5014 2C58.0717 3.68287 57.7929 4.42845 56.5869 8.5C55.3809 12.5716 53.8317 16.288 51.8027 23" stroke="#FFAF4C" stroke-width="2.5" stroke-linecap="round"/>
<path d="M61.5394 10.9163C61.3246 10.9163 60.1397 12.0262 58.4585 13.8692C57.5996 14.8106 57.5617 15.9009 57.4711 17.3071C57.3669 18.9248 57.668 20.0999 58.0283 20.7129C58.8483 22.1085 60.5173 22.5955 61.6267 22.7251C62.7886 22.8609 63.959 20.7227 64.4315 19.6008C64.6595 19.0594 64.6491 18.4778 64.7576 17.7221C65.1283 15.1401 63.9655 13.5247 63.5841 12.7635C63.2238 12.0443 62.8783 11.5694 62.4817 11.2787C62.1579 11.2418 61.7586 11.2776 61.3256 11.3318C61.1076 11.3503 60.8927 11.3503 60.6714 11.3503" stroke="#FFAF4C" stroke-width="2.5" stroke-linecap="round"/>
<path d="M68.3751 11.8928C68.3751 12.036 68.3751 12.1793 68.3035 13.3988C68.2319 14.6184 68.0886 16.91 68.0507 18.2337C68.0045 19.8436 68.3013 20.3538 68.6078 20.7868C68.9268 21.2372 69.2778 21.5485 69.5844 21.747C69.9025 21.9531 70.505 21.9835 71.1913 21.9119C71.7066 21.8582 72.241 21.0483 73.0705 19.8412C74.111 18.3271 74.5228 17.0315 74.6671 16.0962C75.1169 13.1814 75.1022 12.3301 75.1022 12.182C75.1022 12.0078 75.1022 13.0364 75.2097 14.6043C75.3171 16.1722 75.5319 18.607 75.6963 20.0582C75.8607 21.5094 75.9681 21.9033 76.0788 22.2005" stroke="#FFAF4C" stroke-width="2.5" stroke-linecap="round"/>
<path d="M79.187 12.0246C79.187 12.558 79.3867 15.1669 79.5062 16.8612C79.5441 17.3986 79.5904 18.7369 79.607 20.4503C79.6153 21.2998 79.6912 21.8036 79.6912 21.908C79.6912 22.802 79.7245 20.061 79.8082 19.2588C79.961 17.7942 80.1269 16.1996 80.3619 15.0913C80.5863 14.0327 80.8994 13.3719 81.2695 12.8001C81.8684 11.8748 83.0837 11.7906 83.5552 11.6217C83.8455 11.5177 84.1275 11.5536 84.3453 11.6539C84.8001 12.0235 84.9685 12.3261 85.0522 12.5273C85.1027 12.6286 85.1692 12.7285 85.2378 13.033" stroke="#FFAF4C" stroke-width="2.5" stroke-linecap="round"/>
</svg>
