<svg width="142" height="26" viewBox="0 0 142 26" fill="none" xmlns="http://www.w3.org/2000/svg">
<path d="M112.824 21.6261C112.73 21.1091 112.636 20.5921 112.588 18.8923C112.539 17.1925 112.539 14.3255 112.563 12.731C112.682 9.76644 112.729 7.76537 112.8 6.94002C112.824 6.30267 112.824 5.22167 112.824 4.10791" stroke="white" stroke-width="2" stroke-linecap="round"/>
<path d="M102.427 3.96558C102.427 4.90558 102.427 5.84558 102.427 8.28033C102.427 10.7151 102.427 14.6161 102.38 16.8842C102.142 20.531 102.095 21.434 102.024 21.931C102 22.1931 102 22.4751 102 22.6232" stroke="white" stroke-width="2" stroke-linecap="round"/>
<path d="M102.854 3.96558C106.521 9.98159 108.55 13.3628 108.811 13.931C109.592 15.6353 110.639 17.6355 111.066 18.2294C111.537 18.8856 111.779 19.7234 111.992 20.3423C112.064 20.4854 112.158 20.6264 112.23 20.7695C112.302 20.9127 112.349 21.0537 112.397 21.3414" stroke="white" stroke-width="2" stroke-linecap="round"/>
<path d="M120.515 11.3716C119.011 11.5596 118.096 11.7504 117.6 12.3159C116.541 13.5236 116.006 14.8339 115.864 15.9199C115.437 19.1756 116.334 20.2418 116.858 21.1013C117.403 21.995 118.185 22.3839 119.394 22.7171C120.103 22.9124 120.656 22.7186 120.987 22.5533C121.937 22.0795 122.928 19.6977 123.482 17.5998C124.454 13.9203 123.176 13.226 122.89 12.5608C122.368 12.0381 121.941 11.5624 121.563 11.42C121.326 11.3716 120.997 11.3716 120.658 11.3716" stroke="white" stroke-width="2" stroke-linecap="round"/>
<path d="M126.925 12.2261C127.019 12.7901 127.678 15.2897 128.651 18.7777C129.234 20.8688 129.346 21.9053 129.606 22.8574C129.66 23.0548 129.725 23.19 129.82 23.3096C129.914 23.4293 130.055 23.5233 130.198 23.5482C130.783 23.65 131.149 22.9108 131.576 22.3169C131.799 22.0063 131.861 21.5806 132.239 20.3087C133.135 17.2896 133.523 14.888 133.642 14.2721C133.745 13.7344 133.904 13.179 133.974 12.751C133.994 12.6311 134.186 12.793 134.282 12.9596C134.473 13.2909 134.661 14.025 134.97 14.9728C135.21 15.7127 135.608 17.9516 136.273 20.8706C136.612 22.3607 136.989 22.9051 137.202 23.5938C137.256 23.7675 137.367 23.9021 137.51 23.9982C137.652 24.0944 137.84 24.1414 138.125 23.8836C139.586 22.5615 139.598 21.2046 139.908 20.2055C140.205 19.2508 140.313 18.2137 140.431 17.0728C140.554 15.8892 140.598 14.559 140.716 13.3933C140.74 12.8955 140.787 12.4654 140.858 12.0631C140.882 11.8487 140.882 11.6137 140.882 11.3716" stroke="white" stroke-width="2" stroke-linecap="round"/>
<path d="M12.7426 7.38976C12.6212 6.96321 11.8895 5.98509 10.9693 5.3085C10.2875 4.80723 9.4975 4.63191 8.91651 4.66224C7.48551 4.73696 5.82221 5.91523 3.64994 8.08566C2.48271 9.2519 2.38777 10.4491 1.34714 13.4451C0.795442 15.0334 0.975747 17.91 1.37196 19.8874C1.63976 21.2239 3.05333 22.1534 4.12705 22.8319C6.34692 24.2345 9.54714 22.9587 10.3809 22.3152C11.1051 21.7563 11.941 20.8775 12.4962 19.4379C12.8858 18.4278 12.7426 16.7775 12.1965 15.1228C8.8871 14.4388 7.47508 14.1318 6.74241 14.0399C6.31311 14.0086 5.76705 14.0086 5.20445 14.0086" stroke="white" stroke-width="2" stroke-linecap="round"/>
<path d="M16.6473 15.7672C17.2249 15.7672 17.6509 15.7672 17.9577 15.7511C18.3631 15.7299 20.1969 15.6699 22.6923 15.6539C23.5832 15.6482 23.7114 15.6058 23.8257 15.525C24.4161 15.108 24.4914 14.149 24.5084 13C24.5135 12.6538 24.3309 12.4296 24.1048 12.187C23.6622 11.712 23.1007 11.6516 22.6621 11.5048C22.2134 11.3545 21.7392 11.391 20.8825 11.3103C19.8415 11.2122 18.9832 11.3579 18.6433 11.5033C18.1323 11.7219 17.6237 12.3596 16.9254 13.5251C16.4388 14.3373 16.2593 15.4375 16.1134 16.4888C15.892 18.084 16.2894 18.8111 16.7426 19.4442C16.9624 19.7513 17.4544 20.1084 18.4381 20.6257C19.975 21.4341 21.3775 21.4397 22.0232 21.4883C22.9233 21.5561 23.6152 21.4728 23.9385 21.36C24.2619 21.1509 24.8444 20.6014 25.4926 19.9212C25.7235 19.6581 25.7556 19.5618 25.7887 19.4626" stroke="white" stroke-width="2" stroke-linecap="round"/>
<path d="M29.9704 4C29.9704 4.19255 29.9384 4.45221 29.8255 5.99506C29.7246 7.37612 29.6165 9.97692 29.5824 11.5246C29.5484 13.0723 29.6126 13.4895 29.6456 14.4907C29.7306 17.0632 29.7108 18.845 29.8557 19.2807C30.0853 19.971 30.4557 20.402 30.6658 20.5313C31.3332 20.9423 32.6876 21.0186 33.6781 20.8416C34.9934 20.1774 35.5759 19.5306 35.9503 18.6394C35.9999 18.4269 35.9999 18.2664 35.9999 18.1011" stroke="white" stroke-width="2" stroke-linecap="round"/>
<path d="M27.5396 10.7102C29.433 10.7102 31.3264 10.7102 32.4462 10.7102C33.5661 10.7102 33.8549 10.7102 34.1 10.7263C34.345 10.7423 34.5376 10.7744 34.9305 10.8075" stroke="white" stroke-width="2" stroke-linecap="round"/>
<path d="M44 2.06177C44.2506 2.52724 44.5013 2.99272 45.7225 4.432C46.9437 5.87129 49.1278 8.27027 50.3425 9.57773C51.5572 10.8852 51.7362 11.0284 52.0292 11.0675" stroke="white" stroke-width="2" stroke-linecap="round"/>
<path d="M55.5014 1.5C55.0717 3.18287 54.7929 3.92845 53.5869 8C52.3809 12.0716 50.8317 15.788 48.8027 22.5" stroke="white" stroke-width="2" stroke-linecap="round"/>
<path d="M58.5394 10.4163C58.3246 10.4163 57.1397 11.5262 55.4585 13.3692C54.5996 14.3106 54.5617 15.4009 54.4711 16.8071C54.3669 18.4248 54.668 19.5999 55.0283 20.2129C55.8483 21.6085 57.5173 22.0955 58.6267 22.2251C59.7886 22.3609 60.959 20.2227 61.4315 19.1008C61.6595 18.5594 61.6491 17.9778 61.7576 17.2221C62.1283 14.6401 60.9655 13.0247 60.5841 12.2635C60.2238 11.5443 59.8783 11.0694 59.4817 10.7787C59.1579 10.7418 58.7586 10.7776 58.3256 10.8318C58.1076 10.8503 57.8927 10.8503 57.6714 10.8503" stroke="white" stroke-width="2" stroke-linecap="round"/>
<path d="M65.3751 11.3928C65.3751 11.536 65.3751 11.6793 65.3035 12.8988C65.2319 14.1184 65.0886 16.41 65.0507 17.7337C65.0045 19.3436 65.3013 19.8538 65.6078 20.2868C65.9268 20.7372 66.2778 21.0485 66.5844 21.247C66.9025 21.4531 67.505 21.4835 68.1913 21.4119C68.7066 21.3582 69.241 20.5483 70.0705 19.3412C71.111 17.8271 71.5228 16.5315 71.6671 15.5962C72.1169 12.6814 72.1022 11.8301 72.1022 11.682C72.1022 11.5078 72.1022 12.5364 72.2097 14.1043C72.3171 15.6722 72.5319 18.107 72.6963 19.5582C72.8607 21.0094 72.9681 21.4033 73.0788 21.7005" stroke="white" stroke-width="2" stroke-linecap="round"/>
<path d="M76.187 11.5246C76.187 12.058 76.3867 14.6669 76.5062 16.3612C76.5441 16.8986 76.5904 18.2369 76.607 19.9503C76.6153 20.7998 76.6912 21.3036 76.6912 21.408C76.6912 22.302 76.7245 19.561 76.8082 18.7588C76.961 17.2942 77.1269 15.6996 77.3619 14.5913C77.5863 13.5327 77.8994 12.8719 78.2695 12.3001C78.8684 11.3748 80.0837 11.2906 80.5552 11.1217C80.8455 11.0177 81.1275 11.0536 81.3453 11.1539C81.8001 11.5235 81.9685 11.8261 82.0522 12.0273C82.1027 12.1286 82.1692 12.2285 82.2378 12.533" stroke="white" stroke-width="2" stroke-linecap="round"/>
<path d="M91.7174 13.3398C91.7174 12.6742 91.6509 12.1982 91.4003 11.8467C90.6397 10.7801 89.7711 10.6855 88.9139 10.6502C88.1414 10.6184 87.7864 11.1877 87.3825 11.5064C86.9047 11.8834 86.4411 12.4967 86.3559 12.9515C86.3088 13.2032 86.2717 13.606 86.2884 14.076C86.3212 15.0045 88.1434 16.5588 89.0601 17.3883C89.5635 17.8437 89.398 19.1465 89.3142 19.977C89.2923 20.1949 89.2305 20.398 89.0798 20.5826C88.7695 20.9623 87.7239 21.1695 86.8133 21.3903C86.0673 21.5713 85.466 21.3409 85.2148 21.1402C84.4252 20.3012 83.7858 19.2937 83.5171 18.6388C83.4147 18.3831 83.3815 18.2833 83.3472 18.1804" stroke="white" stroke-width="2" stroke-linecap="round"/>
</svg>
