<svg width="608" height="486" viewBox="0 0 608 486" fill="none" xmlns="http://www.w3.org/2000/svg">
<g clip-path="url(#clip0_19_44366)">
<path d="M497.092 243.32H256.753V291.664H497.092V243.32Z" fill="#6A5DE0"/>
<path d="M402.125 155.877H124.477V203.92H402.125V155.877Z" fill="#6A5DE0"/>
<path d="M256.882 328.783H124.477V377.071H256.882V328.783Z" fill="#6A5DE0"/>
<path d="M496.744 69.8H448.386V291.897H496.744V69.8Z" fill="#6A5DE0"/>
<path d="M214.838 69.8H166.48V464.526H214.838V69.8Z" fill="#6A5DE0"/>
<path d="M256.753 69.8L256.818 118.144H456.459V69.8H256.753Z" fill="#6A5DE0"/>
</g>
<path d="M33.1493 393.207L35.9621 423.544L66.2986 426.357L35.9621 429.17L33.1493 459.506L30.3365 429.17L0 426.357L30.3365 423.544L33.1493 393.207Z" fill="#8E82FF"/>
<path d="M94.3418 445.087L96.0692 463.718L114.7 465.446L96.0692 467.173L94.3418 485.804L92.6143 467.173L73.9834 465.446L92.6143 463.718L94.3418 445.087Z" fill="#6A5DE0"/>
<path d="M574.101 37.2266L571.288 67.5631L540.951 70.3759L571.288 73.1887L574.101 103.525L576.914 73.1887L607.25 70.3759L576.914 67.5631L574.101 37.2266Z" fill="#8E82FF"/>
<path d="M520.593 0L518.865 18.6309L500.234 20.3584L518.865 22.0858L520.593 40.7167L522.32 22.0858L540.951 20.3584L522.32 18.6309L520.593 0Z" fill="#6A5DE0"/>
<defs>
<clipPath id="clip0_19_44366">
<rect width="372.267" height="392.687" fill="white" transform="translate(124.477 69.8)"/>
</clipPath>
</defs>
</svg>
