<svg width="289" height="56" viewBox="0 0 289 56" fill="none" xmlns="http://www.w3.org/2000/svg">
<path d="M65.189 41.9261V12.7339H79.4043C84.1428 12.7339 86.512 15.1031 86.512 19.8415V25.5108C86.512 30.2492 84.1428 32.6185 79.4043 32.6185H71.2813V41.9261H65.189ZM71.2813 27.1185H79.1505C79.9966 27.1185 80.4197 26.6954 80.4197 25.8492V19.5031C80.4197 18.6569 79.9966 18.2339 79.1505 18.2339H71.2813V27.1185ZM87.7667 40.7838L96.4398 12.7339H105.747L114.421 40.7838L113.659 41.9261H108.582L106.805 36.0031H95.3821L93.6051 41.9261H88.5282L87.7667 40.7838ZM97.0321 30.5031H105.155L101.432 18.2339H100.755L97.0321 30.5031ZM113.837 13.8762L114.556 12.7339H119.76L126.106 25.13L132.452 12.7339H137.656L138.376 13.8762L129.152 31.6031V41.9261H123.06V31.6031L113.837 13.8762ZM142.615 41.9261V12.7339H148.708V36.4261H161.315V41.9261H142.615ZM175.957 41.9261V12.7339H182.05V24.2838L192.373 12.7339H198.084L198.676 13.9608L188.988 24.7492L199.734 40.6992L199.184 41.9261H193.557L185.053 29.1492L182.05 32.4069V41.9261H175.957ZM203.96 34.8184V19.8415C203.96 15.1031 206.329 12.7339 211.067 12.7339H220.713C225.452 12.7339 227.821 15.1031 227.821 19.8415V34.8184C227.821 39.5569 225.452 41.9261 220.713 41.9261H211.067C206.329 41.9261 203.96 39.5569 203.96 34.8184ZM210.052 35.1569C210.052 36.0031 210.475 36.4261 211.321 36.4261H220.46C221.306 36.4261 221.729 36.0031 221.729 35.1569V19.5031C221.729 18.6569 221.306 18.2339 220.46 18.2339H211.321C210.475 18.2339 210.052 18.6569 210.052 19.5031V35.1569ZM231.629 13.8762L232.348 12.7339H237.552L243.898 25.13L250.245 12.7339H255.448L256.168 13.8762L246.945 31.6031V41.9261H240.852V31.6031L231.629 13.8762ZM260.407 41.9261V12.7339H267.007L278.6 31.8992V12.7339H284.692V41.9261H278.092L266.5 22.7608V41.9261H260.407Z" fill="#FAFAFA"/>
<g clip-path="url(#clip0_1_4933)">
<path d="M45.51 21.3197H16.1558V27.2389H45.51V21.3197Z" fill="#FAFAFA"/>
<path d="M33.9111 10.6132H0V16.4955H33.9111V10.6132Z" fill="#FAFAFA"/>
<path d="M16.1716 31.7837H0V37.6962H16.1716V31.7837Z" fill="#FAFAFA"/>
<path d="M45.4673 0.0738831H39.561V27.2674H45.4673V0.0738831Z" fill="#FAFAFA"/>
<path d="M11.0362 0.0738831H5.12988V48.4042H11.0362V0.0738831Z" fill="#FAFAFA"/>
<path d="M16.1558 0.0738831L16.1637 5.99311H40.5472V0.0738831H16.1558Z" fill="#FAFAFA"/>
</g>
<defs>
<clipPath id="clip0_1_4933">
<rect width="45.4676" height="48.0807" fill="white" transform="translate(0 0.0738831)"/>
</clipPath>
</defs>
</svg>

