<svg width="108" height="37" viewBox="0 0 108 37" fill="none" xmlns="http://www.w3.org/2000/svg">
<path d="M30.8195 0.94873H4.60568C2.06203 0.94873 0 3.04569 0 5.63242V32.2902C0 34.877 2.06203 36.9739 4.60568 36.9739H30.8195C33.3631 36.9739 35.4251 34.877 35.4251 32.2902V5.63242C35.4251 3.04569 33.3631 0.94873 30.8195 0.94873Z" fill="url(#paint0_linear_23_44596)"/>
<path d="M6.07812 18.7472V26.5873C6.07812 29.0924 9.05627 30.3467 10.7976 28.5759L14.6337 24.6748C15.7091 23.5812 15.7142 21.8086 14.6439 20.7081L10.8078 16.769C9.06986 14.9843 6.07812 16.2352 6.07812 18.7472Z" fill="white"/>
<path d="M29.3482 12.4083V23.2338C29.3482 26.6926 25.2369 28.4237 22.8313 25.9791L17.5358 20.594C16.051 19.084 16.0442 16.6359 17.5223 15.1173L22.8177 9.6786C25.2165 7.21495 29.3482 8.94262 29.3482 12.41V12.4083Z" fill="#D5D4FF"/>
<path d="M88.6723 33.5202L88.6621 7.08008C88.6621 6.71381 88.8048 6.36137 89.0613 6.10222L91.4262 3.7025C91.9087 3.21184 92.7343 3.55565 92.7394 4.25017V15.841H92.9756C93.4394 15.4368 93.6347 15.2122 93.9321 14.9841C94.491 14.5574 94.9786 14.2412 95.7482 13.8594C96.5279 13.4724 97.5167 13.2254 98.7705 13.2254C100.4 13.2254 101.854 13.6435 103.133 14.4814C104.412 15.3193 105.418 16.5252 106.149 18.1026C106.881 19.6799 107.246 21.5769 107.246 23.7952C107.246 26.0135 106.883 27.9139 106.156 29.4948C105.428 31.0756 104.429 32.2918 103.159 33.1418C101.888 33.9919 100.439 34.4186 98.8095 34.4186C97.5829 34.4186 96.5823 34.2095 95.8076 33.7914C95.0329 33.3734 94.4264 32.8827 93.9881 32.3212C93.5498 31.7597 93.2134 31.2604 92.9773 30.8251H92.6494V33.4822C92.6494 33.9988 92.2383 34.4169 91.7303 34.4169H89.554C89.0698 34.4169 88.6757 34.0178 88.6757 33.5237L88.6723 33.5202ZM93.1557 23.752C93.1557 25.1946 93.3612 26.461 93.774 27.5477C94.1852 28.6344 94.7135 29.5449 95.4933 30.1547C96.2731 30.7646 96.9578 31.0082 98.0875 31.0082C99.2173 31.0082 100.084 30.6903 100.872 30.0528C101.66 29.4153 102.258 28.5497 102.666 27.4544C103.074 26.359 103.278 25.1255 103.278 23.7537C103.278 22.382 103.079 21.1847 102.68 20.1066C102.28 19.0286 101.686 18.1786 100.892 17.5549C100.099 16.9312 99.1119 16.6202 97.9295 16.6202C96.7471 16.6202 96.0506 16.9174 95.3285 17.5912C94.4536 18.4066 94.1648 18.9457 93.7622 20.0151C93.3595 21.0845 93.1574 22.3319 93.1574 23.7572L93.1557 23.752Z" fill="#211E4A"/>
<path d="M79.8145 33.6633V16.8843C79.8145 16.3798 80.0234 15.9047 80.3717 15.5453C81.0852 14.8111 82.0366 13.8574 82.5072 13.3667C82.6635 13.2043 82.8707 13.1076 83.0933 13.092C83.4671 13.092 83.8102 13.4548 83.8102 13.8505V33.665C83.8102 34.0607 83.5061 34.3803 83.1324 34.3803H80.494C80.1203 34.3803 79.8162 34.0607 79.8162 33.665L79.8145 33.6633Z" fill="#211E4A"/>
<path d="M57.6763 25.7025C57.3008 25.0097 56.803 24.4188 56.1948 23.9489C55.6053 23.4928 54.9563 23.1196 54.2649 22.8397C53.5938 22.5685 52.9279 22.3491 52.2908 22.1901L50.3745 21.6839C50.0075 21.5906 49.6202 21.4697 49.2209 21.3228C48.8387 21.1829 48.4768 21.0032 48.1438 20.7907C47.8397 20.5955 47.5917 20.3519 47.4082 20.0651C47.2349 19.7921 47.15 19.4708 47.15 19.0821C47.15 18.6104 47.2808 18.2027 47.5475 17.8347C47.821 17.4581 48.2186 17.1523 48.7299 16.9294C49.2583 16.6996 49.9022 16.5821 50.6412 16.5821C51.669 16.5821 52.5252 16.8136 53.1878 17.268C53.6924 17.6153 54.0135 18.0593 54.1715 18.626C54.3125 19.1339 54.7865 19.4898 55.3216 19.4898H56.6331C56.9389 19.4898 57.2447 19.3982 57.4758 19.1944C57.8122 18.9007 57.9583 18.4601 57.8767 18.0351C57.7306 17.2732 57.4282 16.5683 56.9814 15.9377C56.3528 15.0514 55.4847 14.3465 54.4025 13.8438C53.3322 13.3462 52.0886 13.094 50.7057 13.094C49.3228 13.094 48.0861 13.348 46.9886 13.8473C45.8775 14.3535 44.9822 15.0756 44.3264 15.9896C43.6622 16.919 43.3241 18.0178 43.3241 19.2566C43.3241 20.7683 43.8338 22.0053 44.8412 22.9313C45.8028 23.8176 47.116 24.4966 48.7452 24.9475L51.0625 25.5902C51.7404 25.7716 52.3537 25.9841 52.8888 26.219C53.3849 26.4384 53.7807 26.7149 54.0644 27.0397C54.321 27.3334 54.4467 27.7117 54.4467 28.1938C54.4467 28.7431 54.2921 29.2079 53.9778 29.6139C53.6516 30.0337 53.1912 30.3671 52.6119 30.6056C52.0139 30.8526 51.3173 30.977 50.5426 30.977C49.8376 30.977 49.1835 30.8699 48.6008 30.6574C48.0419 30.4553 47.5798 30.1408 47.2264 29.7262C46.9801 29.4359 46.8136 29.1008 46.7185 28.7017C46.5876 28.1575 46.1086 27.7774 45.553 27.7774H44.1413C43.9068 27.7774 43.6707 27.8275 43.4736 27.9553C43.0302 28.2404 42.8263 28.7483 42.9181 29.239C43.0828 30.1115 43.4073 30.901 43.8847 31.5869C44.5354 32.5233 45.4426 33.2523 46.5825 33.7568C47.7055 34.2527 49.0442 34.5032 50.563 34.5032C52.0818 34.5032 53.5293 34.2337 54.6624 33.7033C55.8126 33.1642 56.7079 32.4144 57.3212 31.4729C57.9379 30.5278 58.2505 29.4342 58.2505 28.2214C58.2505 27.2556 58.0568 26.4074 57.6746 25.7007L57.6763 25.7025Z" fill="#211E4A"/>
<path d="M79.4141 4.70261V8.13028C79.4141 9.22562 80.6644 9.77329 81.395 8.9993L83.0038 7.2941C83.4557 6.81554 83.4574 6.04154 83.0072 5.55953L81.3984 3.83705C80.6695 3.05615 79.4141 3.60381 79.4141 4.70261Z" fill="#211E4A"/>
<path d="M71.9946 13.5111C71.3286 13.2295 70.6405 13.093 69.9644 13.093C68.624 13.093 67.3226 13.632 66.3135 14.6583L61.1965 19.862C59.7252 21.6017 59.6488 23.3588 59.7813 24.3729C59.783 24.3885 59.7847 24.4351 59.7881 24.4507C59.8645 24.9845 60.5118 25.9123 60.8907 25.5356C61.2168 25.2126 61.5651 24.8653 61.7282 24.7012C62.0459 24.3816 62.3789 24.0395 62.6031 23.8114C62.7577 23.6542 62.88 23.4693 62.9786 23.2707C62.9854 23.2568 63.2079 22.9096 63.3489 22.7662L68.466 17.5625C68.5713 17.445 69.3817 16.7608 70.3246 17.0597C71.157 17.3241 71.2555 18.0324 71.2521 18.4643V24.9206H65.6186C65.0818 24.9206 64.5636 25.1435 64.2001 25.546L62.9633 26.8055C62.5725 27.2374 62.9191 28.0096 63.4967 28.0183C63.5018 28.0183 63.5052 28.0183 63.5103 28.0183H71.2538V33.837C71.2538 34.2068 71.5478 34.5056 71.9113 34.5056H74.5531C74.9166 34.5056 75.2105 34.2068 75.2105 33.837V18.5265C75.2105 16.3566 73.9704 14.3438 71.998 13.5128L71.9946 13.5111Z" fill="#211E4A"/>
<path d="M30.8195 0.94873H4.60568C2.06203 0.94873 0 3.04569 0 5.63242V32.2902C0 34.877 2.06203 36.9739 4.60568 36.9739H30.8195C33.3631 36.9739 35.4251 34.877 35.4251 32.2902V5.63242C35.4251 3.04569 33.3631 0.94873 30.8195 0.94873Z" fill="url(#paint1_linear_23_44596)"/>
<path d="M6.07812 18.7472V26.5873C6.07812 29.0924 9.05627 30.3467 10.7976 28.5759L14.6337 24.6748C15.7091 23.5812 15.7142 21.8086 14.6439 20.7081L10.8078 16.769C9.06986 14.9843 6.07812 16.2352 6.07812 18.7472Z" fill="white"/>
<path d="M29.3482 12.4083V23.2338C29.3482 26.6926 25.2369 28.4237 22.8313 25.9791L17.5358 20.594C16.051 19.084 16.0442 16.6359 17.5223 15.1173L22.8177 9.6786C25.2165 7.21495 29.3482 8.94262 29.3482 12.41V12.4083Z" fill="#D5D4FF"/>
<defs>
<linearGradient id="paint0_linear_23_44596" x1="33.5071" y1="35.0873" x2="0.293575" y2="2.29789" gradientUnits="userSpaceOnUse">
<stop stop-color="#6F03E0"/>
<stop offset="1" stop-color="#2D11A5"/>
</linearGradient>
<linearGradient id="paint1_linear_23_44596" x1="33.5071" y1="35.0873" x2="0.293575" y2="2.29789" gradientUnits="userSpaceOnUse">
<stop stop-color="#6F03E0"/>
<stop offset="1" stop-color="#2D11A5"/>
</linearGradient>
</defs>
</svg>