<svg width="22" height="22" viewBox="0 0 22 22" fill="none" xmlns="http://www.w3.org/2000/svg">
<path d="M9.93281 12.0168L8.23281 10.275C8.07181 10.1028 7.87323 10.0168 7.63706 10.0168C7.4009 10.0168 7.19398 10.1001 7.01631 10.2668C6.84398 10.4389 6.75781 10.6444 6.75781 10.8833C6.75781 11.1223 6.84398 11.3278 7.01631 11.5L9.34956 13.8168C9.51623 13.9834 9.71065 14.0668 9.93281 14.0668C10.1551 14.0668 10.3496 13.9834 10.5163 13.8168L14.9828 9.36675C15.1495 9.20008 15.2315 9.00008 15.2288 8.76675C15.226 8.53342 15.1385 8.33342 14.9663 8.16675C14.7996 8.01108 14.601 7.93467 14.3703 7.9375C14.1398 7.94033 13.9468 8.0195 13.7913 8.175L9.93281 12.0168ZM7.24956 20.85L5.73281 18.2668L2.74956 17.65C2.54406 17.6112 2.37465 17.5014 2.24131 17.3208C2.10798 17.1403 2.05798 16.9473 2.09131 16.7418L2.41631 13.8L0.474562 11.55C0.330062 11.4 0.257812 11.2167 0.257812 11C0.257812 10.7833 0.330062 10.6 0.474562 10.45L2.41631 8.21675L2.09131 5.275C2.05798 5.0695 2.10798 4.87642 2.24131 4.69575C2.37465 4.51525 2.54406 4.40558 2.74956 4.36675L5.73281 3.75L7.24956 1.15C7.36073 0.966667 7.51631 0.840251 7.71631 0.770751C7.91631 0.701418 8.11631 0.711167 8.31631 0.800001L10.9996 2.01675L13.6828 0.800001C13.8828 0.711167 14.0828 0.698667 14.2828 0.762501C14.4828 0.826334 14.6384 0.949918 14.7496 1.13325L16.2828 3.75L19.2496 4.36675C19.4551 4.40558 19.6245 4.51525 19.7578 4.69575C19.8911 4.87642 19.9411 5.0695 19.9078 5.275L19.5828 8.21675L21.5246 10.45C21.6691 10.6 21.7413 10.7833 21.7413 11C21.7413 11.2167 21.6691 11.4 21.5246 11.55L19.5828 13.8L19.9078 16.7418C19.9411 16.9473 19.8911 17.1403 19.7578 17.3208C19.6245 17.5014 19.4551 17.6112 19.2496 17.65L16.2828 18.2668L14.7496 20.8668C14.6384 21.0501 14.4828 21.1737 14.2828 21.2375C14.0828 21.3013 13.8828 21.2888 13.6828 21.2L10.9996 19.9833L8.31631 21.2C8.11631 21.2888 7.91631 21.2986 7.71631 21.2293C7.51631 21.1598 7.36073 21.0333 7.24956 20.85ZM8.36631 19.3333L10.9996 18.2168L13.6996 19.3333L15.2828 16.8668L18.1496 16.15L17.8663 13.2333L19.8328 11L17.8663 8.71675L18.1496 5.8L15.2828 5.13325L13.6496 2.66675L10.9996 3.78325L8.29956 2.66675L6.71631 5.13325L3.84956 5.8L4.13281 8.71675L2.16631 11L4.13281 13.2333L3.84956 16.2L6.71631 16.8668L8.36631 19.3333Z" fill="#7263FA"/>
</svg>
