<svg width="22" height="23" viewBox="0 0 22 23" fill="none" xmlns="http://www.w3.org/2000/svg">
<path d="M15.5713 22.7499V17.1361C15.5713 16.6399 15.461 16.1694 15.2678 15.7445C15.7298 15.6507 16.1917 15.5435 16.652 15.4071C18.0669 14.9883 20.0978 13.2519 20.698 11.5543C21.3632 9.67035 21.3632 7.75942 20.698 5.87544L20.6975 5.87488C20.5782 5.53637 20.3968 5.19505 20.1387 4.82623C20.6135 3.05564 20.2803 1.57473 20.2647 1.50568L20.0603 0.627686L19.161 0.638352C19.077 0.639475 17.2125 0.673718 15.3961 1.73584C13.2937 1.3238 11.1315 1.3238 9.02913 1.73584C7.21328 0.673718 5.34871 0.639475 5.26417 0.638352L4.3638 0.627686L4.15943 1.50568C4.14375 1.57473 3.81059 3.05564 4.28541 4.82623C4.02728 5.19505 3.84587 5.53693 3.72604 5.87544C3.06141 7.75942 3.06141 9.67035 3.7266 11.5549C4.32573 13.2519 6.35659 14.9883 7.77209 15.4071C8.23235 15.5435 8.69429 15.6507 9.15623 15.7445C8.95617 16.181 8.85247 16.6557 8.85219 17.1361V17.8552C8.81747 17.8754 8.78108 17.8917 8.74748 17.9159C8.58566 18.0343 7.14105 19.0201 5.66507 17.9664C5.14434 17.4353 4.88901 17.0463 4.64265 16.6702C4.08944 15.8281 3.61182 15.2184 2.07369 14.4471C1.80795 14.3139 1.50032 14.292 1.21848 14.3863C0.936641 14.4805 0.70368 14.6831 0.570844 14.9495C0.438009 15.216 0.416181 15.5244 0.510162 15.807C0.604143 16.0895 0.806235 16.3231 1.07198 16.4563C2.1868 17.0149 2.38277 17.3124 2.77136 17.9052C3.05973 18.3436 3.41808 18.8899 4.14039 19.614L4.26077 19.7184C5.20817 20.4314 6.19085 20.6857 7.09009 20.6857C7.6914 20.6826 8.2876 20.5749 8.85219 20.3674V22.7549L15.5713 22.7499Z" fill="#5438DC"/>
</svg>
