<svg width="24" height="24" viewBox="0 0 24 24" fill="none" xmlns="http://www.w3.org/2000/svg">
<path d="M4.66675 21C4.21675 21 3.82642 20.8347 3.49575 20.5042C3.16525 20.1736 3 19.7833 3 19.3333V4.66675C3 4.21675 3.16525 3.82642 3.49575 3.49575C3.82642 3.16525 4.21675 3 4.66675 3H19.3333C19.7833 3 20.1736 3.16525 20.5042 3.49575C20.8347 3.82642 21 4.21675 21 4.66675V19.3333C21 19.7833 20.8347 20.1736 20.5042 20.5042C20.1736 20.8347 19.7833 21 19.3333 21H4.66675ZM4.66675 19.3333H19.3333V4.66675H4.66675V19.3333ZM6.76675 17.05H17.25C17.4112 17.05 17.532 16.975 17.6125 16.825C17.693 16.675 17.6833 16.5277 17.5833 16.3832L14.7167 12.5582C14.6277 12.4472 14.5166 12.3918 14.3833 12.3918C14.2499 12.3918 14.1388 12.4472 14.05 12.5582L11.1832 16.3L9.21675 13.625C9.12775 13.5138 9.01658 13.4582 8.88325 13.4582C8.74992 13.4582 8.63883 13.5138 8.55 13.625L6.45 16.3832C6.33883 16.5277 6.32358 16.675 6.40425 16.825C6.48475 16.975 6.60558 17.05 6.76675 17.05ZM8.502 9.83325C8.87283 9.83325 9.18742 9.70342 9.44575 9.44375C9.70408 9.18425 9.83325 8.869 9.83325 8.498C9.83325 8.12717 9.70342 7.81258 9.44375 7.55425C9.18425 7.29592 8.869 7.16675 8.498 7.16675C8.12717 7.16675 7.81258 7.29658 7.55425 7.55625C7.29592 7.81575 7.16675 8.131 7.16675 8.502C7.16675 8.87283 7.29658 9.18742 7.55625 9.44575C7.81575 9.70408 8.131 9.83325 8.502 9.83325Z" fill="currentColor"/>
</svg>
