<svg width="24" height="24" viewBox="0 0 24 24" fill="none" xmlns="http://www.w3.org/2000/svg">
<path d="M23.7853 23.4704H18.9101L18.9125 15.1433C18.8186 13.2429 18.3357 11.6725 16.0689 11.819C14.0988 11.9464 13.5541 13.4868 13.4592 15.1999L13.4616 23.527H8.58643V7.95711H13.2034L13.2896 8.04248V10.1166L14.0621 9.09176C15.6371 7.55043 18.0909 7.29597 20.1586 7.8853C22.7382 8.62023 23.5007 10.8353 23.7275 13.2707L23.7853 23.4704Z" fill="#5438DC"/>
<path d="M5.54749 7.95654H0.672363V23.5267H5.54749V7.95654Z" fill="#5438DC"/>
<path d="M3.10003 5.84082C4.65976 5.84082 5.92418 4.58807 5.92418 3.04273C5.92418 1.49738 4.65976 0.244629 3.10003 0.244629C1.54029 0.244629 0.275879 1.49738 0.275879 3.04273C0.275879 4.58807 1.54029 5.84082 3.10003 5.84082Z" fill="#5438DC"/>
</svg>
