<svg width="24" height="24" viewBox="0 0 24 24" fill="none" xmlns="http://www.w3.org/2000/svg">
<path d="M7.46124 19.3403H5.5412C2.6012 19.1303 1.28125 16.8703 1.28125 14.8603C1.28125 12.8503 2.60121 10.5803 5.49121 10.3803C5.90121 10.3403 6.2612 10.6603 6.2912 11.0803C6.3212 11.4903 6.01125 11.8503 5.59125 11.8803C3.65125 12.0203 2.78125 13.4803 2.78125 14.8703C2.78125 16.2603 3.65125 17.7203 5.59125 17.8603H7.46124C7.87124 17.8603 8.21124 18.2003 8.21124 18.6103C8.21124 19.0203 7.87124 19.3403 7.46124 19.3403Z" fill="#292D32"/>
<path d="M16.6689 19.34C16.6489 19.34 16.6389 19.34 16.6189 19.34C16.2089 19.34 15.829 19 15.829 18.59C15.829 18.16 16.1489 17.84 16.5689 17.84C17.7989 17.84 18.8989 17.41 19.7589 16.64C21.3189 15.28 21.4189 13.32 20.9989 11.94C20.5789 10.57 19.4089 9 17.3689 8.75C17.0389 8.71 16.7789 8.46001 16.7189 8.13001C16.3189 5.73001 15.0289 4.07 13.0689 3.47C11.0489 2.84 8.68891 3.46 7.21891 5C5.78891 6.49 5.45892 8.58001 6.28892 10.88C6.42892 11.27 6.22896 11.7 5.83896 11.84C5.44896 11.98 5.01894 11.78 4.87894 11.39C3.86894 8.57 4.32895 5.87 6.13895 3.97C7.98895 2.03 10.9589 1.26 13.5089 2.04C15.8489 2.76 17.4989 4.69 18.0989 7.37C20.1389 7.83 21.7789 9.38001 22.4289 11.52C23.1389 13.85 22.4989 16.25 20.7489 17.77C19.6389 18.77 18.1889 19.34 16.6689 19.34Z" fill="#292D32"/>
<path d="M12 22.2803C9.99 22.2803 8.11002 21.2103 7.08002 19.4803C6.97002 19.3103 6.86002 19.1103 6.77002 18.8903C6.43002 18.1803 6.25 17.3703 6.25 16.5303C6.25 13.3603 8.83 10.7803 12 10.7803C15.17 10.7803 17.75 13.3603 17.75 16.5303C17.75 17.3803 17.57 18.1803 17.21 18.9203C17.13 19.1103 17.02 19.3103 16.9 19.5003C15.89 21.2103 14.01 22.2803 12 22.2803ZM12 12.2803C9.66 12.2803 7.75 14.1903 7.75 16.5303C7.75 17.1503 7.88001 17.7303 8.13001 18.2603C8.21001 18.4303 8.27999 18.5703 8.35999 18.7003C9.11999 19.9903 10.51 20.7803 11.99 20.7803C13.47 20.7803 14.86 19.9903 15.61 18.7203C15.7 18.5703 15.78 18.4303 15.84 18.2903C16.11 17.7403 16.24 17.1603 16.24 16.5403C16.25 14.1903 14.34 12.2803 12 12.2803Z" fill="#292D32"/>
<path d="M11.4309 18.2698C11.2409 18.2698 11.0509 18.1998 10.9009 18.0498L9.91086 17.0598C9.62086 16.7698 9.62086 16.2898 9.91086 15.9998C10.2009 15.7098 10.6809 15.7098 10.9709 15.9998L11.4509 16.4798L13.0509 14.9998C13.3609 14.7198 13.8309 14.7398 14.1109 15.0398C14.3909 15.3398 14.3709 15.8198 14.0709 16.0998L11.9409 18.0698C11.7909 18.1998 11.6109 18.2698 11.4309 18.2698Z" fill="#292D32"/>
</svg>
