<svg width="24" height="24" viewBox="0 0 24 24" fill="none" xmlns="http://www.w3.org/2000/svg">
<path d="M4.66675 18.45V19.3333V4.66675V18.45ZM4.66675 21C4.20842 21 3.816 20.8368 3.4895 20.5105C3.16317 20.184 3 19.7916 3 19.3333V4.66675C3 4.20842 3.16317 3.816 3.4895 3.4895C3.816 3.16317 4.20842 3 4.66675 3H19.3333C19.7916 3 20.184 3.16317 20.5105 3.4895C20.8368 3.816 21 4.20842 21 4.66675V7.73325H19.3333V4.66675H4.66675V19.3333H19.3333V16.2832H21V19.3333C21 19.7916 20.8368 20.184 20.5105 20.5105C20.184 20.8368 19.7916 21 19.3333 21H4.66675ZM13.3 16.7832C12.7775 16.7832 12.3302 16.5988 11.9582 16.23C11.5861 15.8612 11.4 15.4178 11.4 14.9V9.11675C11.4 8.59875 11.5861 8.15533 11.9582 7.7865C12.3302 7.41767 12.7775 7.23325 13.3 7.23325H20.1333C20.6558 7.23325 21.1031 7.41767 21.4753 7.7865C21.8473 8.15533 22.0333 8.59875 22.0333 9.11675V14.9C22.0333 15.4178 21.8473 15.8612 21.4753 16.23C21.1031 16.5988 20.6558 16.7832 20.1333 16.7832H13.3ZM20.3667 15.1168V8.9H13.0667V15.1168H20.3667ZM16.204 13.5668C16.6402 13.5668 17.0097 13.4128 17.3125 13.1048C17.6153 12.7969 17.7667 12.4231 17.7667 11.9832C17.7667 11.5527 17.6126 11.1868 17.3042 10.8855C16.9959 10.584 16.6278 10.4333 16.2 10.4333C15.7722 10.4333 15.4041 10.584 15.0958 10.8855C14.7874 11.1868 14.6333 11.5527 14.6333 11.9832C14.6333 12.4231 14.786 12.7969 15.0915 13.1048C15.3968 13.4128 15.7677 13.5668 16.204 13.5668Z" fill="#292D32"/>
</svg>
